<?xml version="1.0" encoding="utf-8"?>
<svg viewBox="0 0 500 500" xmlns="http://www.w3.org/2000/svg">
  <title id="title2">GSOC_ROCKET</title>
  <desc id="desc4">Created with Sketch.</desc>
  <g id="Group" transform="matrix(1, 0, 0, 1, 415.645913, 109.205015)"/>
  <g style="fill:#757575;font-family:Roboto" id="Roboto" transform="matrix(1, 0, 0, 1, 415.645913, 109.205015)"/>
  <g style="fill:#757575" id="Google" transform="matrix(1, 0, 0, 1, 415.645913, 109.205015)"/>
  <title id="bx-title-1">logo_lockup_summer_of_code_horizontal_Roboto</title>
  <desc id="desc-1">Created with Sketch.</desc>
  <g id="g-1" transform="matrix(1.311943, 0, 0, 1.264788, 185.225021, 40.813862)" style="">
    <path style="fill:#fbbc05" d="m 114.7,150.8 25.7,25.7 25.7,-25.7 h 36.4 V 114.4 L 228.2,88.7 202.5,63 V 26.6 H 166.1 L 140.4,0.9 114.7,26.6 H 78.3 V 63 l -25.7,25.7 25.7,25.7 v 36.4 z" id="Shape"/>
    <circle id="Oval" cx="140.4" cy="88.7" r="58.7" style="fill:none;stroke:#ffffff;stroke-width:8"/>
  </g>
  <g transform="matrix(1, 0, 0, 1, 214.649689, -22.293001)">
    <path d="M 217.395 156.907 C 214.059 151.719 209.381 147.127 203.502 143.254 C 192.142 135.781 177.215 131.665 161.472 131.665 C 156.212 131.665 151.029 132.123 145.999 133.029 C 142.878 130.021 139.229 127.315 135.364 125.177 C 121.025 118.021 108.384 120.69 102 122.984 C 99.902 123.739 99.255 126.4 100.806 127.998 C 105.309 132.649 112.758 141.843 110.927 150.204 C 103.803 157.484 99.943 166.257 99.943 175.391 C 99.943 184.7 103.803 193.472 110.922 200.748 C 112.754 209.108 105.304 218.307 100.802 222.959 C 99.255 224.557 99.897 227.212 101.995 227.968 C 108.38 230.266 121.016 232.936 135.359 225.779 C 139.224 223.641 142.873 220.935 145.994 217.927 C 151.025 218.833 156.207 219.291 161.467 219.291 C 177.215 219.291 192.142 215.18 203.497 207.707 C 209.377 203.834 214.054 199.246 217.391 194.054 C 221.109 188.276 222.991 182.053 222.991 175.57 C 222.995 168.903 221.109 162.69 217.395 156.907 Z M 160.829 208.499 C 154.022 208.499 147.532 207.62 141.615 206.032 L 137.292 210.194 C 134.942 212.455 132.188 214.502 129.314 216.114 C 125.509 217.977 121.75 218.998 118.032 219.305 C 118.243 218.925 118.436 218.54 118.643 218.156 C 122.976 210.189 124.146 203.028 122.149 196.677 C 115.063 191.105 110.812 183.972 110.812 176.202 C 110.812 158.368 133.207 143.908 160.829 143.908 C 188.451 143.908 210.85 158.368 210.85 176.202 C 210.846 194.045 188.451 208.499 160.829 208.499 Z" style="fill: rgb(252, 252, 252);"/>
  </g>
  <g transform="matrix(1, 0, 0, 1, 213.375763, -22.292999)">
    <g transform="matrix(1, 0, 0, 1, 211.464951, -107.006363)">
      <path d="M -75.205 275.786 C -79.276 275.786 -82.577 279.064 -82.577 283.107 C -82.577 287.15 -79.276 290.428 -75.205 290.428 C -71.134 290.428 -67.834 287.15 -67.834 283.107 C -67.834 279.064 -71.134 275.786 -75.205 275.786 Z" style="fill: rgb(255, 255, 255);"/>
      <path d="M -51.475 275.786 C -55.546 275.786 -58.846 279.064 -58.846 283.107 C -58.846 287.15 -55.546 290.428 -51.475 290.428 C -47.403 290.428 -44.103 287.15 -44.103 283.107 C -44.103 279.064 -47.403 275.786 -51.475 275.786 Z" style="fill: rgb(255, 255, 255);"/>
      <path d="M -27.745 275.786 C -31.816 275.786 -35.117 279.064 -35.117 283.107 C -35.117 287.15 -31.816 290.428 -27.745 290.428 C -23.674 290.428 -20.374 287.15 -20.374 283.107 C -20.374 279.064 -23.678 275.786 -27.745 275.786 Z" style="fill: rgb(255, 255, 255);"/>
    </g>
  </g>
</svg>